<?xml version="1.0" encoding="utf-8"?>
<!-- Generator: Adobe Illustrator 24.1.0, SVG Export Plug-In . SVG Version: 6.00 Build 0)  -->
<svg version="1.1" id="Layer_1" xmlns="http://www.w3.org/2000/svg" xmlns:xlink="http://www.w3.org/1999/xlink" x="0px" y="0px"
	 viewBox="0 0 365.6 139" style="enable-background:new 0 0 365.6 139;" xml:space="preserve">
<style type="text/css">
	.st0{fill:#3C3C3B;}
</style>
<g>
	<path class="st0" d="M72.4,62.3H42.1c-0.8,0-1.4,0.6-1.4,1.4v14.8c0,0.8,0.6,1.4,1.4,1.4h11.8v18.4c0,0-2.7,0.9-10,0.9
		c-8.6,0-20.7-3.2-20.7-29.7c0-26.6,12.6-30.1,24.4-30.1c10.2,0,14.6,1.8,17.4,2.7c0.9,0.3,1.7-0.6,1.7-1.4l3.4-14.3
		c0-0.4-0.1-0.8-0.5-1.1c-1.2-0.8-8.1-4.7-25.7-4.7C23.7,20.6,3,29.2,3,70.5S26.7,118,46.7,118c16.6,0,26.6-7.1,26.6-7.1
		c0.4-0.2,0.5-0.8,0.5-1.1V63.7C73.8,62.9,73.2,62.3,72.4,62.3z"/>
	<path class="st0" d="M228.4,25.6c0-0.8-0.6-1.4-1.4-1.4h-17c-0.8,0-1.4,0.6-1.4,1.4v32.9H182V25.6c0-0.8-0.6-1.4-1.4-1.4h-17
		c-0.8,0-1.4,0.6-1.4,1.4v89.2c0,0.8,0.6,1.4,1.4,1.4h17c0.8,0,1.4-0.6,1.4-1.4V76.6h26.6v38.1c0,0.8,0.6,1.4,1.4,1.4h17.1
		c0.8,0,1.4-0.6,1.4-1.4V25.6H228.4z"/>
	<g>
		<g>
			<path class="st0" d="M104.5,37.3c0-6.1-4.9-11.1-11-11.1s-11,5-11,11.1s4.9,11.1,11,11.1C99.6,48.4,104.5,43.4,104.5,37.3z"/>
			<path class="st0" d="M103.3,95.9c0-2.3,0-41.2,0-41.2c0-0.8-0.6-1.4-1.4-1.4h-17c-0.8,0-1.5,0.8-1.5,1.6c0,0,0,49.5,0,59
				c0,1.7,1.1,2.2,2.5,2.2c0,0,7.3,0,15.3,0c1.7,0,2.1-0.8,2.1-2.3C103.3,110.7,103.3,98.3,103.3,95.9z"/>
		</g>
	</g>
	<path class="st0" d="M293.1,53.5h-16.9c-0.8,0-1.4,0.6-1.4,1.4v43.7c0,0-4.3,3.1-10.4,3.1s-7.7-2.8-7.7-8.7c0-6,0-38.1,0-38.1
		c0-0.8-0.6-1.4-1.4-1.4h-17.2c-0.8,0-1.4,0.6-1.4,1.4c0,0,0,23.3,0,41s9.9,22.1,23.5,22.1c11.2,0,20.1-6.2,20.1-6.2
		s0.4,3.2,0.6,3.6s0.7,0.8,1.2,0.8H293c0.8,0,1.4-0.6,1.4-1.4V54.9C294.5,54.1,293.9,53.5,293.1,53.5z"/>
	<path class="st0" d="M339.3,51.5c-9.6,0-16.1,4.3-16.1,4.3V25.6c0-0.8-0.6-1.4-1.4-1.4h-17.1c-0.8,0-1.4,0.6-1.4,1.4v89.2
		c0,0.8,0.6,1.4,1.4,1.4h11.9c0.5,0,0.9-0.3,1.2-0.8c0.3-0.5,0.7-4.1,0.7-4.1s7,6.6,20.2,6.6c15.5,0,24.4-7.9,24.4-35.4
		C363.2,55.1,349,51.5,339.3,51.5z M332.7,101.7c-5.9-0.2-9.8-2.8-9.8-2.8V70.6c0,0,3.9-2.4,8.7-2.8c6.1-0.5,12,1.3,12,15.8
		C343.5,98.9,340.9,102,332.7,101.7z"/>
	<path class="st0" d="M152.3,53.3h-12.8V36.4c0-0.6-0.3-1-1.1-1H121c-0.7,0-1,0.3-1,0.9v17.5c0,0-8.7,2.1-9.3,2.3
		c-0.6,0.2-1,0.7-1,1.4v11c0,0.8,0.6,1.4,1.4,1.4h8.9c0,0,0,11.5,0,26.4c0,19.6,13.7,21.5,23,21.5c4.2,0,9.3-1.4,10.1-1.7
		c0.5-0.2,0.8-0.7,0.8-1.3v-12.1c0-0.8-0.7-1.4-1.4-1.4s-2.7,0.3-4.6,0.3c-6.3,0-8.4-2.9-8.4-6.7c0-3.8,0-25.1,0-25.1h12.8
		c0.8,0,1.4-0.6,1.4-1.4V54.7C153.7,54,153.1,53.3,152.3,53.3z"/>
</g>
</svg>
