<?xml version="1.0" encoding="utf-8"?>
<!-- Generator: Adobe Illustrator 24.1.0, SVG Export Plug-In . SVG Version: 6.00 Build 0)  -->
<svg version="1.1"
	 id="svg3070" inkscape:version="0.48.0 r9654" sodipodi:docname="New document 4" xmlns:cc="http://creativecommons.org/ns#" xmlns:dc="http://purl.org/dc/elements/1.1/" xmlns:inkscape="http://www.inkscape.org/namespaces/inkscape" xmlns:rdf="http://www.w3.org/1999/02/22-rdf-syntax-ns#" xmlns:sodipodi="http://sodipodi.sourceforge.net/DTD/sodipodi-0.dtd" xmlns:svg="http://www.w3.org/2000/svg"
	 xmlns="http://www.w3.org/2000/svg" xmlns:xlink="http://www.w3.org/1999/xlink" x="0px" y="0px" viewBox="0 0 287.9 76.2"
	 style="enable-background:new 0 0 287.9 76.2;" xml:space="preserve">
<style type="text/css">
	.st0{fill:#3C3C3B;}
	.st1{fill-rule:evenodd;clip-rule:evenodd;fill:#3C3C3B;}
	.st2{fill-rule:evenodd;clip-rule:evenodd;fill:#FFFFFF;}
</style>
<sodipodi:namedview  bordercolor="#666666" borderopacity="1.0" fit-margin-bottom="0" fit-margin-left="0" fit-margin-right="0" fit-margin-top="0" id="base" inkscape:current-layer="layer1" inkscape:cx="142.93233" inkscape:cy="33.703355" inkscape:document-units="px" inkscape:pageopacity="0.0" inkscape:pageshadow="2" inkscape:window-height="750" inkscape:window-maximized="1" inkscape:window-width="1280" inkscape:window-x="-8" inkscape:window-y="-8" inkscape:zoom="2.8" pagecolor="#ffffff" showgrid="false">
	</sodipodi:namedview>
<path class="st0" d="M282.3,0h-64.6c-3.1,0-5.6,2.5-5.6,5.5v65.3c0,3.1,2.5,5.5,5.6,5.5h64.6c3.1,0,5.6-2.5,5.6-5.5V5.5
	C287.9,2.4,285.4,0,282.3,0z M235.1,63.8h-11.4V29.4h11.4V63.8z M229.3,24.7c-3.9,0-6.4-2.6-6.4-5.9s2.6-5.9,6.5-5.9
	s6.3,2.5,6.4,5.9C235.8,22.1,233.3,24.7,229.3,24.7z M276.3,63.8h-11.4V45.4c0-4.6-1.7-7.8-5.8-7.8c-3.2,0-5.1,2.1-5.9,4.2
	c-0.3,0.7-0.4,1.8-0.4,2.8v19.2h-11.4c0,0,0.1-31.2,0-34.4h11.4v4.8c1.5-2.3,4.2-5.7,10.3-5.7c7.6,0,13.2,4.9,13.2,15.5L276.3,63.8
	L276.3,63.8z M252.8,34.4v-0.2C252.8,34.3,252.7,34.3,252.8,34.4L252.8,34.4z"/>
<path id="path16" inkscape:connector-curvature="0" class="st1" d="M0,63.9h31.6V53.5H11.4V13.9H0V63.9z"/>
<path id="path18" inkscape:connector-curvature="0" class="st1" d="M47.6,63.9V29.4H36.2v34.4L47.6,63.9L47.6,63.9z M41.9,24.7
	c4,0,6.5-2.6,6.5-5.9c-0.1-3.4-2.5-5.9-6.4-5.9s-6.5,2.6-6.5,5.9S38,24.7,41.9,24.7L41.9,24.7L41.9,24.7z"/>
<path id="path20" inkscape:connector-curvature="0" class="st1" d="M52.9,63.9h11.4V44.6c0-1,0.1-2.1,0.4-2.8
	c0.8-2.1,2.7-4.2,5.9-4.2c4.1,0,5.8,3.2,5.8,7.8v18.4h11.4V44.1c0-10.6-5.6-15.5-13.2-15.5c-6.2,0-8.9,3.5-10.4,5.8h0.1v-5H52.9
	C53.1,32.7,52.9,63.9,52.9,63.9L52.9,63.9z"/>
<path id="path22" inkscape:connector-curvature="0" class="st1" d="M104,13.9H92.6v50H104V52.7l2.9-3.6l9,14.8H130l-15.1-21.4
	L128,28h-13.8c0,0-9.4,13-10.2,14.6V13.9L104,13.9z"/>
<path id="path24" inkscape:connector-curvature="0" class="st1" d="M160.5,49.5c0.2-0.9,0.4-2.6,0.4-4.5c0-8.9-4.5-17.9-16.4-17.9
	c-12.7,0-18.6,10.1-18.6,19.2c0,11.3,7.2,18.3,19.6,18.3c5,0,9.6-0.7,13.3-2.3l-1.5-7.6c-3.1,1-6.2,1.5-10.2,1.5
	c-5.3,0-10-2.2-10.4-6.9L160.5,49.5L160.5,49.5z M136.7,41.8c0.3-2.9,2.3-7.3,7.2-7.3c5.2,0,6.4,4.6,6.4,7.3H136.7z"/>
<path id="path26" inkscape:connector-curvature="0" class="st1" d="M189.1,13.9v17.3H189c-1.7-2.4-5.1-4-9.7-4
	c-8.8,0-16.6,7.1-16.5,19.1c0,11.2,7,18.4,15.7,18.4c4.7,0,9.3-2.1,11.5-6h0.2l0.5,5.2h10.2c-0.2-2.4-0.3-6.6-0.3-10.7V13.9H189.1
	L189.1,13.9z M189.1,47.9c0,0.9-0.1,1.8-0.2,2.5c-0.7,3.2-3.4,5.4-6.7,5.4c-4.7,0-7.8-3.8-7.8-9.8c0-5.7,2.6-10.2,7.9-10.2
	c3.5,0,6,2.4,6.7,5.4c0.2,0.7,0.2,1.4,0.2,2.1L189.1,47.9L189.1,47.9z"/>
<path class="st2" d="M252.8,34.2v0.2h-0.1C252.7,34.3,252.8,34.3,252.8,34.2z"/>
</svg>
